<?xml version="1.0" encoding="utf-8"?>
<!-- Generator: Adobe Illustrator 28.1.0, SVG Export Plug-In . SVG Version: 6.00 Build 0)  -->
<svg version="1.1" id="Camada_1" xmlns="http://www.w3.org/2000/svg" xmlns:xlink="http://www.w3.org/1999/xlink" x="0px" y="0px"
	 viewBox="0 0 233.1 68.6" style="enable-background:new 0 0 233.1 68.6;" xml:space="preserve">
<style type="text/css">
	.st0{enable-background:new    ;}
	.st1{fill:#F0F0F0;}
</style>
<g class="st0">
	<path class="st1" d="M23.7,46.3c0,10.6-2.1,12-11.9,12S0,56.9,0,46.3V12C0,1.4,2,0,11.8,0s11.9,1.4,11.9,12V46.3z M15.3,12
		c0-3.8-0.5-4.5-3.5-4.5c-3.1,0-3.6,0.8-3.6,4.5v34.3c0,4,0.5,4.7,3.5,4.7c3.2,0,3.6-0.9,3.6-4.7V12z"/>
	<path class="st1" d="M50.8,49.2c0,6.7-1.3,8.8-6.7,8.8c-3.2,0-5.3-0.7-6.6-3v13.6h-7.3V14.5h6.8v3.2c1.4-2.8,3.6-3.5,6.8-3.5
		c5.6,0,6.9,2.2,6.9,8.8V49.2z M37.4,49.2c0.7,1.6,1.7,2.2,3.5,2.2c2.2,0,2.8-0.9,2.8-3.6V24.3c0-2.7-0.6-3.6-2.8-3.6
		c-1.9,0-2.8,0.6-3.5,2.2V49.2z"/>
	<path class="st1" d="M64.2,38.6v10.2c0,2.7,0.4,3.3,3.1,3.3c2.6,0,3.1-0.6,3.1-3.3v-5.8H77v6.3c0,8.1-1.8,9.1-9.8,9.1
		c-8.5,0-10.2-1.2-10.2-9.1V22.9c0-8,1.7-9.1,10.2-9.1c8,0,9.8,1,9.8,9.1v15.7H64.2z M64.2,32.7h6.2v-9.2c0-2.7-0.5-3.2-3.1-3.2
		c-2.7,0-3.1,0.5-3.1,3.2V32.7z"/>
	<path class="st1" d="M90.9,57.6h-7.3V14.5h6.8v2.9c1.2-2.2,3.1-3.2,7.1-3.2c5.5,0,7.3,2.2,7.3,8.8v34.7h-7.3V23.7
		c0-2.2-0.7-3-2.9-3c-2.4,0-3.1,0.9-3.7,2.2V57.6z"/>
	<path class="st1" d="M139.5,57.6V44.9h-7v12.7h-8.1V12c0-10.4,2.2-12,11.4-12c9.6,0,12,1.7,12,12v45.7H139.5z M132.5,12v26.2h7V12
		c0-3.9-0.6-4.5-3.5-4.5S132.5,8.1,132.5,12z"/>
	<path class="st1" d="M167,20.5h-5v27.1c0,3,0.7,3.8,3.6,3.8h1.4v6.3h-1.9c-7.9,0-10.4-2.8-10.4-9.1v-28H152v-6h2.7V1.4h7.3v13.1h5
		V20.5z"/>
	<path class="st1" d="M180.1,57.6h-7.3V0.7h7.3V57.6z"/>
	<path class="st1" d="M186.6,50V39.5c0-5.2,1.8-7.5,6.6-7.5h1.4c3.2,0,4.3,0.3,5,0.6v-8.9c0-3.1-0.5-3.7-3-3.7
		c-2.8,0-3.2,0.8-3.2,3.7V28h-6.7v-5.1c0-8.1,1.7-9.1,9.7-9.1c8.5,0,10.3,1.2,10.3,9.1v34.7c-1.7,0.4-5.5,0.7-10.2,0.7
		C188.3,58.3,186.6,57.5,186.6,50z M199.5,52.1V38c-0.6-0.4-1.7-0.4-2.7-0.4c-3.2,0-3.5,0.6-3.5,3.8v6.8c0,3.6,0.2,4.1,3.5,4.1
		C198.1,52.3,199.2,52.2,199.5,52.1z"/>
	<path class="st1" d="M225.9,26.9v-3.2c0-2.5-0.4-3.1-3.2-3.1s-3.1,0.6-3.1,3.1v3.5c0,2.6,0.5,3,3.7,4.4c0.6,0.3,4,1.8,5.4,2.5
		c3.8,2,4.3,3.8,4.3,7.1v8c0,8.1-1.7,9.2-10.2,9.2c-8.5,0-10.4-1.1-10.4-9.2v-6.6h7.2v5.8c0,2.6,0.5,3.2,3.2,3.2
		c2.8,0,3.1-0.6,3.1-3.2v-5.3c0-2.3-0.4-2.9-3-4.1c-2.3-1.1-3.7-1.4-6-2.7c-3.6-1.9-4.5-3.5-4.5-8.1V23c0-8.1,1.8-9.2,10.4-9.2
		c8.5,0,10.2,1.1,10.2,9.2v4H225.9z"/>
</g>
</svg>
