<?xml version="1.0" encoding="utf-8"?>
<!-- Generator: Adobe Illustrator 28.1.0, SVG Export Plug-In . SVG Version: 6.00 Build 0)  -->
<svg version="1.1" id="Camada_1" xmlns="http://www.w3.org/2000/svg" xmlns:xlink="http://www.w3.org/1999/xlink" x="0px" y="0px"
	 viewBox="0 0 253.7 417.7" style="enable-background:new 0 0 253.7 417.7;" xml:space="preserve">
<style type="text/css">
	.st0{fill:#F0F0F0;}
	.st1{enable-background:new    ;}
</style>
<g>
	<g>
		<g>
			<path class="st0" d="M139.6,0c3.8,0,7.7,0,11.5,0c0.2,0.2,0.4,0.2,0.7,0.2c6.6,0.4,13.1,1.4,19.5,3.1c5.7,1.5,11.2,3.4,16.6,5.9
				c-0.3,2.2-0.2,4.4,1.4,6c1.3,1.3,2.8,2.3,4.3,3.4c0.7,0.5,1.5,0.5,2.2,0.2c0.8-0.4,0.9-0.8,0.4-1.5s-1.2-1.1-1.8-1.6
				c-1.3-1.1-2.6-2.1-3.6-3.5c-0.4-0.5-0.9-1.1-0.5-1.9c2.4,1.1,4.8,2.4,7,3.8c0.1,1.8,1.1,3,2.4,4c0.6,0.4,1.2,0.8,1.8,1.2
				c0.5,0.3,1,0.7,1,1.3c-0.1,0.7-0.6,1-1.2,1.2c-1.5,0.6-3,0.9-4.4-0.4c-0.6-0.6-1.1-0.3-1.2,0.5c-0.1,0.7-0.1,1.4,0.1,2
				c0.2,1.1,0.3,2.2-0.2,3.2c-0.4,0.8-1.1,0.9-1.7,0.3c-0.4-0.4-0.7-0.9-0.9-1.5c-0.1-0.5,0-1,0.6-1.1c1-0.3,0.8-1,0.5-1.6
				c-0.2-0.6-0.8-0.9-1.4-1.1c-1.7-0.5-3.2-1.4-4.7-2.2c-1.4-0.7-2.8-1.3-4.4-1.7c-3.7-0.9-7.2,1.8-6.7,5.2c0.3,1.8-0.2,3.1-1.5,4.3
				c-0.4,0.4-0.8,0.8-1.2,1.1c-1.9,1.8-1.8,4.3,0.2,6c1.5,1.3,3.2,1.4,5.1,0.8c1.1-0.4,3.1,0.2,3.5,1.1c0.6,1.4,0.4,2.7-0.8,3.5
				c-0.4,0.2-0.4,0.5-0.3,0.9c0.1,0.4,0.4,0.6,0.8,0.7c0.8,0.1,1.6-0.1,2.2-0.6c2.8-1.9,2.3-6.4,0.6-8c-1.2-1.1-1.4-2-0.6-3.4
				c0.6-1.1,0.9-2.2,0.3-3.3c-0.2-0.3-0.2-0.7,0.2-0.9c0.4-0.2,0.7-0.1,1,0.3s0.4,0.9,0.4,1.4c-0.1,1.1-0.2,2.2-0.2,3.3
				c0,1.2,0.6,2.1,1.7,2.6c1.4,0.6,2.8,0.5,4.2,0.2c0.6-0.1,1.2,0,1.2,0.7c0.1,0.6-0.5,0.6-0.9,0.7c-1.6,0.3-2,1-1.2,2.5
				c0.3,0.6,0.2,1-0.4,1.2c-0.3,0.1-0.6,0.2-1,0.4c-0.7,0.3-1.1,0.8-0.5,1.5c0.4,0.5,0.2,0.9-0.2,1.4c-1,1-2.2,1.5-3.6,1.6
				c-2.7,0.2-5.3-0.1-6.3-3.7c-0.1-0.3-0.2-0.6-0.4-0.9c-0.2-0.3-0.5-0.4-0.9-0.3c-0.4,0.1-0.3,0.5-0.3,0.8c0,0.9,0.3,1.7,0.7,2.4
				c0.5,0.9,0,1.3-0.7,1.5c-0.3,0.1-0.7,0.2-1,0.2c-0.9,0-1.4,0.6-1.5,1.4c-0.1,0.5-0.2,1-0.2,1.5c-0.1,0.9-0.5,1.5-1.4,1.8
				c-2.1,0.8-4.2,1.6-6.4,2.1c-0.3,0.1-0.8,0.1-0.8,0.5s0.4,0.5,0.7,0.6c0.9,0.3,1.9,0.6,2.8,0.9c0.6,0.2,1,0.5,1.2,1
				c0.8,1.6-0.6,3.9-2.4,3.9c-2.7,0-5.2,2.2-5.7,4.9c-0.3,1.6,0.3,2.9,1.4,3.9c1.1,1,2.4,1.6,3.8,2c4.1,1.2,7.3-0.9,8.2-5.1
				c0.2-1.1,0.1-2.3,0.5-3.4c0.4-1.3,1-1.7,2.4-1.5c1,0.1,1.9,0.5,2.9,0.4c3.9-0.3,6.9,1.6,9.4,4.3c0.8,0.8,0.6,1.5-0.4,2.1
				c-0.6,0.4-1.2,0.7-1.8,1c-0.5,0.3-0.5,0.8,0,1.2c1.2,1,3.1,0.6,3.7-0.8c0.1-0.3,0.2-0.6,0.4-0.8c0.9-1.3,0.8-2.6,0-3.8
				c-0.7-1.3-1.7-2.3-2.6-3.4c-0.7-0.8-1.5-1.6-2-2.6c1.1-0.2,2,0.3,2.7,0.9c2.7,2.2,4.9,4.8,6.3,8.1c1.1,2.8,3,5,5.7,6.4
				c0.7,0.4,1.5,0.7,2.1-0.1c0.5-0.7-0.3-1.3-0.7-1.7c-0.8-0.9-1.7-1.7-2.4-2.7c-0.7-1.1-0.7-2,0.1-3c0.4-0.5,0.7-0.5,1.1,0
				c0.5,0.7,0.8,1.4,1.2,2.2c1.1,2.4,3.1,3.3,5.7,2.7c1.4-0.3,2-0.1,2.7,1.2c0.4,0.9,0.7,1.8,0.6,2.8c0,2.2-1.1,3.3-3.3,3.5
				c-1,0.1-2.1,0-3.1-0.2c-2.2-0.3-4.3-0.8-5.9-2.5c-1.2-1.2-2.6-1.1-3.5,0.4c-0.5,0.8-1.2,1.1-2,1.1c-3.3,0.1-5.7-1.5-6.9-4.5
				c-1.1-2.9-1.4-3.1-4.5-3.1c-4,0-8,0.2-11.5,2.6c-0.7,0.5-1.7,0.5-2.6,0.2c-2.6-0.9-4.5-0.2-6,2.2c-1,1.6-1.2,3.3-1.3,5.1
				c-0.1,1.3-0.5,1.8-1.8,2.1c-0.5,0.1-0.9,0.1-1.4,0.2c-1.9,0.3-3.4,1.2-4.2,3.1c-0.6,1.5-1.1,3-1.5,4.6s-0.4,3,0.3,4.5
				c0.6,1.2,0.5,2.4-0.1,3.5c-0.4,0.8-0.8,1.6-0.8,2.5c0.1,3.3,1.1,6,4.2,7.6c1.7,0.9,2.8,2.2,3.3,4c0.1,0.5,0.4,0.9,0.7,1.3
				c2.5,2.8,7.4,4,10.7,1.4c0.4-0.3,0.9-0.6,1.5-0.7c0.4-0.1,0.8-0.1,1.1,0.2c1.1,1.4,2.3,0.9,3.6,0.4c1-0.4,1.9-0.9,2.9-1.2
				c0.9-0.2,1.5,0,2,0.7s0.9,1.4,1.3,2.1c0.5,0.7,1.2,1,2,1c1.8-0.1,1.8-0.1,1.2,1.7c-0.2,0.5-0.3,0.9-0.4,1.4
				c-0.4,1.7-0.2,3.2,0.7,4.7c1.5,2.3,2.4,4.9,2.7,7.7c0.4,2.9,0.2,5.6-1.7,8.1c-1.6,2.2-2.3,4.8-2.3,7.5c-0.1,3.4,0.5,6.7,1.3,9.9
				c0.6,2.3,1,4.7,2.1,6.8c1.7,3.1,4.1,3.9,7.2,2.2c4.4-2.5,7.3-6.4,9.2-11.1c0.1-0.2,0.1-0.5,0.1-0.8c-0.1-0.7,0.3-1,0.9-1.1
				c0.4-0.1,0.8-0.1,1.2-0.2c1.5-0.2,1.8-0.5,1.8-2c0-1.4-0.2-2.7-0.2-4.1c0-1,0.4-1.8,1.3-2.2c0.9-0.4,1.9-0.8,2.8-1.2
				c2.1-0.9,3.5-2.5,3.9-4.8c0.2-1.2,0.1-2.3,0.2-3.5c0.1-4.1,0.9-8.1,2.9-11.7c0.9-1.6,2-3.2,3.9-3.7c1.3-0.4,2.1-1.1,2.7-2.2
				c1.4-2.4,2.1-5,2.7-7.7c0.3-1.4,0.5-2.8,0.4-4.2c0-0.5-0.1-1-0.6-1.2s-0.8,0.2-1,0.5c-0.5,0.5-1.1,0.5-1.7,0.5
				c-1.1,0.1-1.5-0.4-1.2-1.5c0.4-1.4,1.4-2.3,2.4-3.1c1.6-1.3,3.3-2.3,4.7-3.8c1.3-1.4,2.2-2.9,2-4.9c-0.2-1.6-0.5-3.2-0.8-4.7
				c-0.4-1.8-1-2.2-2.6-1.2s-2.6,0.3-3.4-0.6c-1.2-1.4-1.9-3-2.3-4.7c-0.1-0.5-0.3-1.2,0.3-1.5s1.2,0,1.7,0.4c1,0.8,1.5,1.9,1.9,3.1
				c0.2,0.7,0.7,1.4,1.5,1.2c1.4-0.4,2.7-0.1,4.1,0c2.3,0.2,3.2,0.8,3.9,2.9c1.9,5.9,3.3,12,4.7,18.1c0.7,2.9,1.2,5.7,1.9,8.6
				c-0.3,4.4-0.9,8.8-2,13.1c-7.3,30.9-25,53.9-53,68.9c-11.2,6-23.3,9.5-36,10.9c-1.6,0.2-3.1,0.1-4.7,0.5c-0.5,0.2-1,0.1-1.5,0.1
				c-3.3,0-6.7,0-10,0c-0.6,0-1.2,0.1-1.8-0.1c-0.7-0.3-1.6-0.3-2.3-0.3c-11.3-1-22.1-3.8-32.5-8.4c-19.6-8.8-35-22.3-46.2-40.6
				c-8.3-13.6-13.1-28.4-14.5-44.3c-0.1-1,0.1-2-0.4-3c0-3.8,0-7.7,0-11.5c0.3-0.2,0.2-0.6,0.2-0.9c0.2-1.8,0.3-3.6,0.5-5.4
				c1.3-10.9,4.2-21.3,8.8-31.2c2.7-5.9,5.9-11.5,9.8-16.7c0,1.4-0.5,2.8-0.8,4.2c-0.9,3.3-1.7,6.6-3.9,9.4
				c-1.1,1.3-1.8,2.8-2.4,4.4c-2.6,6.8-3.7,13.7-3.3,21c0.3,4.9,1.3,9.7,3.5,14.1c0.2,0.4,0.3,1,0.8,0.9s0.5-0.8,0.5-1.2
				c0-0.1,0-0.3,0-0.4c0-1.8-0.3-3.5-0.5-5.2c-0.1-0.9-0.2-1.7,0-2.6c0.4,0.3,0.5,0.5,0.6,0.8c0.5,1.8,0.9,3.7,1,5.6
				c0.1,3.8,1.5,7.1,3.7,10.2c1.4,1.9,3.2,2.8,5.4,3.2c0.3,0.1,0.8,0.1,1,0c0.7-0.6,1.2-0.2,1.7,0.2c2.9,2.3,5.8,4.6,7.9,7.7
				c1,1.5,2.2,3.1,4,3.8c2.3,1,2.8,2,1.7,4.3c-0.8,1.8-1,3.5-0.3,5.3c0.3,0.9,0.2,1.7-0.3,2.5c-1.4,2.7-2.1,5.6-1.4,8.6
				c0.4,1.9,1.8,3.4,2.7,5c2.4,4.4,5.6,8,10.1,10.5c3.2,1.7,5.1,4.5,5.3,8.2c0.1,1.8,0.5,3.5,1.2,5.1c2.5,6.1,5.8,11.8,9.1,17.4
				c1.7,2.8,4,5.1,6.6,7.1c0.9,0.7,1.9,1.2,3.1,1.3c0.8,0.1,1.6,0.1,2-0.7s0-1.5-0.5-2.2c-0.1-0.2-0.3-0.4-0.5-0.5
				c-2.8-2.4-3.9-5.6-4.7-9c-0.2-0.8,0.2-1.3,1-1.5s1.6-0.4,2.4-0.7c1.2-0.5,1.5-1.2,1-2.4c-0.1-0.4-0.3-0.8-0.4-1.2
				c-0.2-0.9,0.2-1.8,1.1-1.8c1.3,0,1.8-0.9,2.3-1.8c1.2-2.2,1.7-4.5,1.8-7c0.1-2.1,0.8-2.8,2.9-2.8c1,0,1.9,0.1,2.9,0
				c1.6-0.1,2.3-0.9,2.5-2.5c0.1-1.4,0.1-2.9,0.2-4.3c0.1-1.5,0.5-2.8,1.5-4c1.7-2,3.1-4.1,3.9-6.6c1.1-3.5-0.2-6.1-3.6-7.3
				c-3.5-1.2-6.9-2.3-10.4-3.4c-2.4-0.8-4.8-1.2-7.2-0.4c-0.4,0.1-1,0.5-1.2,0.2c-0.3-0.4,0.3-0.8,0.5-1.2c1.4-2.1,1.3-2.4-0.4-4.2
				c-2.4-2.3-5-4.3-7.9-6c-6-3.6-12.2-6.3-19.4-5.5c-3.2,0.3-6.2-1.4-7-5.1c-0.4-1.7-0.9-3.4-1.7-4.9c-0.7-1.3-1.7-2.5-3.3-2.5
				c-1.2,0-1-0.4-0.6-1.2c0.6-1.4,1.1-2.9,1.3-4.5c0.2-1.7-0.7-2.8-2.2-2.7c-1.1,0.1-2.1,0.5-2.7,1.4c-0.4,0.6-0.8,1.1-1.2,1.7
				c-0.9,1.3-1.8,1.2-2.7-0.1c-0.6-1-0.9-2-1-3.1c-0.2-2.4,0.2-4.7,2.1-6.5c0.6-0.5,1.1-0.7,1.9-0.1c2.1,1.4,4.3,1.5,6-1
				c0.7-1,1.4-1.9,2.2-3c0.8,2.6,1.8,4.9,1,7.4c-0.3,1.1-0.1,1.8,0.5,2.6c0.8,1,1.7,1.3,2.8,0.8c1.3-0.6,1.8-1.6,1.5-2.9
				c-0.4-1.6-0.8-3.2-1.2-4.9c-0.9-3.6-0.1-5.2,3.2-6.9c1-0.5,2-0.9,2.9-1.6c1-0.7,1.5-1.6,1.5-2.8c0-1.1,0-2.1,0-3.2
				c0-1.5,0.8-2.4,2.1-2.9c1.2-0.4,2.4-0.6,3.6-0.6c0.9,0,1.7-0.4,2.4-1c1-1,1.4-2.1,0.9-3.6c1.3,0.7,2.4,1.5,3.8,1.5
				c2.7,0.1,4.5-1.5,6-3.4c1.4-1.7,0.9-3.2-1.1-4.2c-0.6-0.3-1.1-0.5-1.6-0.8c-0.9-0.6-0.9-1.4,0-2c1.3-1,2.9-1.4,4.5-1.4
				c0.9,0,1.1,0.4,0.9,1.3c-0.2,0.7-0.6,1.4-0.8,2.1c-0.5,1.4,0.3,2.3,1.8,2.1c1.2-0.2,2.2,0,3.3,0.4c0.5,0.2,1,0.4,1.5,0.5
				c1.1,0.3,2.4,0.5,3.3-0.5s0.6-2.3,0.1-3.3c-1.3-2.7-1.9-5.5-2.4-8.4c-0.3-1.8-1.3-3-3.1-3.4c-0.6-0.1-0.8-0.5-1.1-1
				c-0.6-1.4-1.5-2.6-2.5-3.7c-1.7-1.9-3-2.2-5.4-1.3c0-1.8-0.9-3-2.4-3.7c-1.7-0.9-3.5-1.1-5.4-1.2c-0.8,0-1.2,0.5-1.5,1.2
				C97.9,38,97.8,39,98,40c0.1,0.7-0.1,1-0.8,1.2c-2.5,0.6-2.9,1.6-1.6,3.8c0.4,0.8,0.3,1.4-0.3,1.9c-0.3,0.3-0.6,0.5-1,0.7
				c-1.4,0.7-2,1.8-1.9,3.3c0.1,0.7-0.1,1.5-0.6,2.1c-0.3,0.4-0.7,0.6-1.2,0.4c-0.5-0.2-0.5-0.7-0.4-1.1c0.1-0.5,0.2-0.9,0.4-1.4
				c1-2.5,1-2.7-1.7-3.5c-1.4-0.4-2.8-0.8-4-1.6c-1.7-1.2-2-2.8-0.7-4.3c1.1-1.3,2.3-2.6,3.7-3.7c0.9-0.7,1.9-1.2,3.2-1.3
				c1.3-0.1,2-0.9,2.3-2.1c0-0.2,0-0.5,0.3-0.6c0.3,0.6,0.6,1.1,0.9,1.7c0.6,0.9,1.4,0.9,2.1,0c0.6-0.8,0.4-1.7,0.2-2.6
				c-0.1-0.6-0.8-1.3-0.3-1.8c0.5-0.4,1.1,0.2,1.7,0.4c0.8,0.2,1.5,0.1,2.1-0.3s0.1-1,0.1-1.5c0-0.4-0.2-1.1,0.7-0.7
				c0.4,0.2,0.5-0.2,0.6-0.5c0.3-0.8,0.6-1.7,1.2-2.4c0.7-0.9,1.6-0.9,2.3-0.1c0.8,0.9,0.9,1.9,0.2,3c-0.7,1.2-1.8,2-2.8,3
				c-1.2,1.3-1.2,1.8,0.2,2.9c1.5,1.1,3.3,1.9,5,2.8c1.8,0.8,1.8,0.8,2.7-0.9c0.2-0.4,0.3-0.9,1-0.6c0.4,0.2,0.8,0.4,1.1,0
				c0.3-0.4,0.2-0.8,0-1.3c-0.1-0.3-0.3-0.6-0.4-1c-0.2-0.5-0.7-1.2-0.2-1.6c0.5-0.5,1.1,0.1,1.7,0.3c0.4,0.2,0.7,0.6,1.2,0.4
				c0.8-0.3,1.5-0.7,2.1-1.4c0.6-0.7,0.5-1.4-0.1-2c-0.4-0.4-0.8-0.6-1.2-1c-1.1-0.9-2.2-1.8-1.7-3.5c0.1-0.3-0.2-0.5-0.4-0.7
				c-1.1-0.8-2.2-1.7-3.5-2.3c-0.5-0.3-1.1-0.6-1.7-0.5c-1.1,0.1-1.8-0.5-1.8-1.5c-0.1-0.9,0.5-1.5,1.5-1.5c2.2,0,3.9-1,5.4-2.3
				c1.7-1.5,3.7-2.4,5.9-2.8c0.9-0.2,2-0.5,2.7,0.6c0.2,0.3,0.6,0.3,0.9,0.3c0.6,0,1.1-0.1,1.6-0.2c1-0.2,1.3,0.1,1.3,1.1
				c0,1.2-0.4,2.2-1.1,3.1c-1.1,1.3-1,1.5,0.6,2c0,0,0.1,0.1,0.1,0.2c-0.4,0.2-0.8,0.4-1.2,0.6c-0.3,0.2-0.6,0.4-0.7,0.8
				c0,0.5,0.4,0.7,0.7,0.7c0.6,0.1,0.5,0.4,0.3,0.8c-0.8,1.5-1.4,3-1.7,4.6c-0.4,2.2-0.4,4.4,1.5,6c1.1,1,2.5,1.4,3.9,1.6
				c1.4,0.2,2.8,0.2,3.8,1.6c0.1,0.2,0.4,0.3,0.6,0.4c1.2,0.6,2.1,0.4,2.7-0.8c0.5-1,0.7-2.1,0.9-3.1c0.3-2,0.8-4,2-5.8
				c0.5-0.7,1.1-1.4,2-1.5c2.1-0.3,3.2-1.5,3.5-3.6c0-0.3,0.1-0.5,0.5-0.6c2.6-0.3,4.1-2,4.1-4.5c0-1.9-0.7-2.9-2.6-3.4
				c-1-0.3-1.3-0.9-0.8-1.9c0.2-0.4,0.5-0.7,0.9-1c0.7-0.6,0.6-1.2,0.1-1.8c-0.7-0.8-1.5-1.3-2.5-1.3c-1.1,0-1.4-0.6-1.5-1.6
				c-0.2-1.4-0.9-2.5-2.5-2.7c-1-0.2-2,0-3,0.2c-1.8,0.4-3.5,0.9-4.3,2.8c-0.2,0.4-0.5,0.4-0.9,0.4c-1.5,0.1-2.9-0.4-4.1-1.2
				c-1.6-1-3.3-1.1-5-0.8c-3.5,0.5-6.8,1.8-10,3.5c-2.3,1.2-4.1,2.6-4.4,5.5c-0.1,1-0.7,1.3-1.7,1.1c-0.7-0.2-1.4-0.4-2.2-0.6
				c-1.4-0.4-2.1,0.1-2.1,1.5c0,0.8,0.2,1.6,0.5,2.4c0.2,0.6,0.2,1-0.3,1.5c-1,1-1.8,2.1-2.8,3c-0.6,0.6-0.7,1.1-0.1,1.8
				c0.3,0.3,0.6,0.5,0.1,0.9c-1,0.7-2,1.5-3,2.2c-0.4-0.6-0.2-1.2-0.4-1.8c-0.3-0.8-0.1-1.4,0.5-2c0.8-0.8,1.5-1.7,2.1-2.6
				c0.4-0.6,1.1-1.4,0.6-2.1c-0.5-0.8-1.4-0.3-2.2-0.3c-1.1,0.1-1.7,0.6-1.8,1.8c-0.2,1.3-0.6,2.6-1.3,3.8c-0.7,1.2-1.3,1.6-2.7,1.3
				c-0.6-0.1-1.1,0.1-1.4,0.5s-0.6,0.8-0.9,1.1c-0.3,0.4-0.8,0.6-1.2,0.2c-1.1-1.1-2.1-0.6-3.1,0c-1.7,1-2.8,0.4-3.1-1.5
				c-0.2-0.9-0.7-1.4-1.6-1.6c-0.9-0.1-1.8,0.2-2.6,0.2c1.7-1.6,3.5-3,5.3-4.4c16.1-11.8,34-18.8,54-20.5
				C137.5,0.3,138.6,0.4,139.6,0z M226.5,138.5c0-0.7-0.1-1.4-0.1-2c-0.1-0.6-0.4-0.7-0.8-0.3c-0.6,0.6-1.3,1.1-1.5,2
				c-0.4,1.2-1.3,1.8-2.5,1.9c-1.8,0.2-2.6,1.1-2.6,2.9c0,1.3-0.2,2.5-0.6,3.7c-0.4,1.1-0.9,2.1-1.5,3c-0.8,1.3-0.1,2.4,1.4,2.5
				c1.3,0,2.3-0.5,2.8-1.7c1-2.4,2.6-4.5,4-6.7C226,142.2,226.8,140.5,226.5,138.5z M93.1,22.3c0-1.3-0.4-1.5-1.3-1.2
				c-0.4,0.1-0.9,0.3-1.3,0.3c-0.5,0.1-0.9,0-0.5-0.7s0.1-1.1-0.5-1.5c-0.8-0.4-1.5-0.4-2.2,0.1c-0.8,0.5-1.4,1.2-2.1,1.8
				c-0.6,0.6-1,1.4-1,2.3c0.1,0.8-0.1,1.5-0.9,2c-0.5,0.3-0.5,1.7,0,2.2c0.5,0.6,1,0.1,1.4-0.2c0.8-0.5,1.6-0.9,2.6-1
				c1.1-0.1,2.2-0.4,3.1-1C91.7,24.8,92.9,23.8,93.1,22.3z M171.4,46.4c0,0,0.2,0,0.4,0.1c1.2,0.3,2.1,0.1,2.3-0.7
				c0.4-1-0.4-1.5-1-2c-0.1-0.1-0.2-0.2-0.3-0.2c-1.2-0.7-2.4-1.5-3.5-2.2c-0.7-0.5-1.1-1.1-1.2-2c-0.1-1.2-0.6-2.3-1.4-3.2
				c-0.6-0.7-1.2-0.6-1.8,0.1c-0.8,0.9-0.8,2,0.1,3.3c0.6,1,1.5,1.8,2.3,2.7c0.6,0.6,0.8,1.3,0.5,2.2c-0.2,0.6-0.4,1.2-0.2,1.8
				c0.3,0.9,0.1,1.5-0.8,1.8c-0.2,0.1-0.6,0.2-0.4,0.6c0.2,0.3,0.5,0.2,0.7,0.1c0.8-0.2,1.3-0.8,1.9-1.3
				C169.7,46.9,170.3,46.3,171.4,46.4z M149.1,24.4c-0.6,0-1,0-1.4,0c-0.7,0.1-1.2,0.4-1.5,1.1c-0.6,1.6,0.2,3.2,1.8,3.7
				c1.2,0.4,2.4,0.6,3.7,0.5c1.6-0.1,3-1.4,3-2.7c0-1.4-1.2-2.4-3-2.7C150.8,24.3,149.9,24.5,149.1,24.4z M81.6,98.4
				c-1.1-0.1-1.8,0-2.5,0.5c-0.5,0.4-0.4,0.7-0.1,1.1c0.7,0.8,1.4,0.3,2.1,0.1c0.6-0.2,1.1-0.4,1.5,0.3c1.5,2.2,3.6,3.1,6.2,2.5
				c0.3-0.1,0.7-0.2,0.9-0.4c0.3-0.3,0.4-0.5,0-0.9C87.4,99.4,84.5,98.5,81.6,98.4z M90.7,105.3c1.2-0.2,2.6-0.2,3.9-0.2
				c0.9,0,1.8-0.3,2.5-1c0.4-0.4,0.7-1-0.2-1.2c-0.4-0.1-0.6-0.4-0.9-0.6c-0.8-0.8-1.8-1.4-2.9-1.6c-0.6-0.1-1.3,0-1.4,0.7
				c-0.2,1.2-1.1,1.8-1.8,2.6c-0.2,0.3-0.8,0.6-0.5,1C89.6,105.4,90.1,105.3,90.7,105.3z M161.2,45c-0.1,1.5,0.1,1.7,1.6,1.4
				c0.3-0.1,0.7-0.2,1-0.2c0.8-0.2,1.3-0.7,1.3-1.6c0-1.2-0.3-2.3-0.9-3.4c-0.2-0.3-0.4-0.5-0.8-0.6c-1.2-0.2-2.8,1.5-2.4,2.7
				C161.2,43.8,161.3,44.4,161.2,45z M166,6.1c-1.2,0.1-2,0.4-2.8,0.9c-0.8,0.6-0.8,1.1,0.1,1.7c1,0.6,2,1.2,3.1,1.5
				c0.6,0.2,1.2,0.4,1.8,0.1c0.3-0.2,0.6-0.4,0.6-0.8c0-0.3-0.3-0.5-0.6-0.5c-0.7-0.2-0.6-0.6-0.3-1c0.2-0.3,0.3-0.6,0-0.8
				C167.3,6.6,166.6,6.1,166,6.1z M96.5,16.6c-0.1,0-0.9,0.3-0.3-0.7c0.2-0.3,0.1-0.7-0.2-0.9c-0.3-0.2-0.6-0.2-0.8,0
				c-0.7,0.5-1.4,1.1-1.8,1.9c-0.3,0.6-0.2,1,0.2,1.5c1,1,2.7,0.7,3.8-0.7c0.2-0.3,0.5-0.6,0.3-0.9C97.5,16.4,97.1,16.6,96.5,16.6z
				 M185.8,60.1c-2.2,0.1-2.3,0.1-1.5,2.2c0,0.1,0.1,0.1,0.1,0.2c0.3,0.7,0.4,1.7,1.2,1.7c0.9,0,1.2-1,1.6-1.8
				c0.1-0.2,0.1-0.4,0.1-0.6C187.3,60.9,186.6,60,185.8,60.1z M105.4,11.5c-0.7,0-1.9,1.2-1.9,1.8s1,1.2,2,1.2c0.9,0,2-1,2-1.7
				C107.6,12.1,106.5,11.5,105.4,11.5z"/>
			<path class="st0" d="M210.2,56.3c0.2-0.9,0-1.7,0-2.6c0-0.6,0.1-1.2,0.8-0.9c0.6,0.2,2-0.1,1.5,1.2c-0.6,1.7,0.2,2.6,1.4,3.4
				c1.1,0.8,2.3,1.7,2.8,3c0.1,0.3,0.4,0.7,0.1,1c-0.3,0.3-0.7,0-0.9-0.2c-1.4-0.8-2.9-1.6-4.3-2.4c-1.1-0.6-1.3-0.5-1.8,0.6
				c-0.6,1.2-1.6,1.3-2.8,1.3c-1.1,0-1.6-0.7-1.9-1.6c-0.5-1.9-0.2-3.7,0.1-5.6c0.1-0.6,0.6-0.7,1.2-0.4c1.3,0.6,2.1,1.7,3.1,2.6
				C209.7,56,209.8,56.3,210.2,56.3z"/>
			<path class="st0" d="M225.6,59.6c0.9-0.1,1.4,0,1.9,0.4s1,0.7,0.2,1.4c-0.5,0.4-0.3,0.9-0.1,1.4c0.3,1,0.8,2,0.8,3.1
				c0,0.2,0,0.5-0.1,0.7c-0.2,0.6-0.5,1.3-1.2,1.4s-1.1-0.5-1.4-1c-0.5-0.9-0.8-2-0.9-3c0-1.1-0.5-2-1.2-2.9
				c-1.2-1.3-2.2-2.8-3.1-4.3c-0.4-0.8-0.8-1.6-0.7-2.5c0.1-1.1,1-2,2-2.1c0.9-0.1,1.5,0.5,1.2,1.4c-0.7,2.1,0.1,3.9,1.2,5.6
				C224.7,59.6,225.2,59.6,225.6,59.6z"/>
			<path class="st0" d="M226.5,98.5c0,0.4,0,0.7-0.3,0.9c-0.3,0.2-0.6-0.1-0.8-0.3c-0.7-0.5-1.2-1.2-1.7-1.9c-1.5-1.9-2.6-4-3.5-6.2
				c-0.8-2.1-2-3.9-3.4-5.6c-0.5-0.7-0.9-1.4-0.2-2.2c0.7-0.8,1.2-0.8,1.9,0c1.1,1.2,1.6,2.7,2.3,4.1c0.8,1.6,1.5,3.2,2.2,4.7
				c0.4,0.9,1,1.7,1.8,2.4C226,95.4,226.2,97,226.5,98.5z"/>
		</g>
		<path class="st0" d="M145.1,0.2C88.5,0.2,42.7,46.1,42.7,102.6S88.5,205,145.1,205s102.4-45.8,102.4-102.4S201.6,0.2,145.1,0.2z
			 M145.1,201.3c-54.4,0-98.7-44.3-98.7-98.7S90.7,4,145.1,4s98.7,44.3,98.7,98.7S199.5,201.3,145.1,201.3z"/>
		<path class="st0" d="M172.1,241c1.1-11.4,4.5-15.6,7.5-17.2c3.1-1.6,3.7-1.9,8.7-5.5c3.5-2.5,7.8-5.6,11.2-11
			c1.4-2.3,3.5-6.1,4.5-11.7l3.1-3.2c0.6-0.6,1.5-0.5,2,0.1c0.8,1,2.1,2.2,3.8,3.3c0.6,0.4,1.3,0.7,1.9,1c1.6,0.7,3.5,0.3,4.7-1
			l5.9-6.6h2.9v-5.4c1.6-0.4,3.6-1.1,5.2-2.9c4.7-5.2,2.8-16.8-4.1-20.1c-3.3-1.6-6.8-0.7-8.7-0.1l-78.8,40.1l0.4,8.7l-2.8,8.5
			l-6.9,9.3l-1.7,5.5c-1.4,0.5-8.1,2.8-11.7,10c-3,5.9-2.1,11.4-1.7,13.2c-7.1,1.3-11.4,4.1-14,6.4c-3,2.6-4.5,5.2-9.4,9.4
			c-2.5,2.2-4.8,3.7-6.3,4.7c-9,0.7-14.8,3.5-18.4,5.8c-2.7,1.7-2.8,2.3-13.2,11.9c-7.1,6.6-8.2,7.4-11.1,10.6
			c-5.6,6.4-7.5,10.5-8,14.6c-0.2,1.9-0.1,3.5,0,4.5l22.6-1.2c-0.5-0.7-3.2-4.6-2.2-9.7c1.3-6.8,7.9-9.3,8.3-9.4
			c4.3-1.8,8-2.6,10.6-3c5.9-1,8.6-0.3,13.1-1.8c4-1.3,6.9-3.4,8.7-5c2.2,0.3,7.3,0.7,12.9-1.8c5.1-2.2,8.2-5.7,9.5-7.4
			c2.4-0.1,15.3-1,24.5-11.7c6.2-7.2,7.6-15.1,7.9-18.4c0.5,1.1,0.9,2.6,1.1,4.4c0.3,2.9-0.2,5.3-0.6,6.8c5,1.6,13.3,3.6,23.6,3
			c10.9-0.7,19.3-4,24.1-6.4c-0.4,0.9-1.4,2.9-3.5,4.5s-4.2,2.1-5.2,2.3c1,1.4,2.4,3.6,2.8,6.6c0.9,6.5-3.8,9.2-4.9,17.1
			c-0.9,6.5,1.9,7.7,1.3,14.4c-0.6,6.5-3.7,11.5-6.4,14.8l38.5,4.2c-0.8-1.3-2.3-3.6-5.1-5.4c-4.4-2.9-9-2.6-10.5-2.4
			c-0.7-1-2-2.8-2.5-5.4c-1.7-9,8.5-14.6,11.9-27.7c0.7-2.8,1.5-7.3,0.6-13.4c0.9-1.4,2-3.5,3.1-6.1c2.3-5.4,7.9-18.8,2.5-27.2
			c-4.2-6.5-13.2-7-24.6-7.7c-6.4-0.4-14.9-0.7-22.1,4.8C174.8,237.5,173.2,239.5,172.1,241z"/>
		<path class="st0" d="M0,330.9c34.6-7.6,79.3-14.3,131.5-13.9c48.1,0.4,89.5,6.6,122.2,13.9H0z"/>
	</g>
	<g class="st1">
		<path class="st0" d="M30.2,391.8c0,10.6-2.1,12-11.9,12s-11.8-1.4-11.8-12v-34.3c0-10.5,2-12,11.8-12s11.9,1.4,11.9,12V391.8z
			 M21.8,357.4c0-3.8-0.5-4.5-3.5-4.5c-3.1,0-3.6,0.8-3.6,4.5v34.3c0,4,0.5,4.7,3.5,4.7c3.2,0,3.6-0.9,3.6-4.7V357.4z"/>
		<path class="st0" d="M57.3,394.7c0,6.7-1.3,8.8-6.7,8.8c-3.2,0-5.3-0.7-6.6-3v13.6h-7.3v-54.1h6.8v3.2c1.4-2.8,3.6-3.5,6.8-3.5
			c5.6,0,6.9,2.2,6.9,8.8V394.7z M43.9,394.7c0.7,1.6,1.7,2.2,3.5,2.2c2.2,0,2.8-0.9,2.8-3.6v-23.5c0-2.7-0.6-3.6-2.8-3.6
			c-1.9,0-2.8,0.6-3.5,2.2V394.7z"/>
		<path class="st0" d="M70.7,384.1v10.2c0,2.7,0.4,3.3,3.1,3.3c2.6,0,3.1-0.6,3.1-3.3v-5.8h6.6v6.3c0,8.1-1.8,9.1-9.8,9.1
			c-8.5,0-10.2-1.2-10.2-9.1v-26.3c0-8,1.7-9.1,10.2-9.1c8,0,9.8,1,9.8,9.1v15.7H70.7z M70.7,378.2h6.2V369c0-2.7-0.5-3.2-3.1-3.2
			c-2.7,0-3.1,0.5-3.1,3.2V378.2z"/>
		<path class="st0" d="M97.4,403.1h-7.3v-43.1h6.8v2.9c1.2-2.2,3.1-3.2,7.1-3.2c5.5,0,7.3,2.2,7.3,8.8v34.7H104v-33.9
			c0-2.2-0.7-3-2.9-3c-2.4,0-3.1,0.9-3.7,2.2V403.1z"/>
		<path class="st0" d="M146,403.1v-12.7h-7v12.7h-8.1v-45.7c0-10.4,2.2-12,11.4-12c9.6,0,12,1.7,12,12v45.7H146z M139,357.4v26.2h7
			v-26.2c0-3.9-0.6-4.5-3.5-4.5S139,353.5,139,357.4z"/>
		<path class="st0" d="M173.5,365.9h-5V393c0,3,0.7,3.8,3.6,3.8h1.4v6.3h-1.9c-7.9,0-10.4-2.8-10.4-9.1v-28h-2.7v-6h2.7v-13.1h7.3
			v13.1h5V365.9z"/>
		<path class="st0" d="M186.6,403.1h-7.3v-56.9h7.3V403.1z"/>
		<path class="st0" d="M193.1,395.4V385c0-5.2,1.8-7.5,6.6-7.5h1.4c3.2,0,4.3,0.3,5,0.6v-8.9c0-3.1-0.5-3.7-3-3.7
			c-2.8,0-3.2,0.8-3.2,3.7v4.2h-6.7v-5.1c0-8.1,1.7-9.1,9.7-9.1c8.5,0,10.3,1.2,10.3,9.1v34.7c-1.7,0.4-5.5,0.7-10.2,0.7
			C194.9,403.8,193.1,402.9,193.1,395.4z M206,397.6v-14.1c-0.6-0.4-1.7-0.4-2.7-0.4c-3.2,0-3.5,0.6-3.5,3.8v6.8
			c0,3.6,0.2,4.1,3.5,4.1C204.6,397.8,205.7,397.7,206,397.6z"/>
		<path class="st0" d="M232.4,372.4v-3.2c0-2.5-0.4-3.1-3.2-3.1s-3.1,0.6-3.1,3.1v3.5c0,2.6,0.5,3,3.7,4.4c0.6,0.3,4,1.8,5.4,2.5
			c3.8,2,4.3,3.8,4.3,7.1v8c0,8.1-1.7,9.2-10.2,9.2c-8.5,0-10.4-1.1-10.4-9.2V388h7.2v5.8c0,2.6,0.5,3.2,3.2,3.2
			c2.8,0,3.1-0.6,3.1-3.2v-5.3c0-2.3-0.4-2.9-3-4.1c-2.3-1.1-3.7-1.4-6-2.7c-3.6-1.9-4.5-3.5-4.5-8.1v-5.3c0-8.1,1.8-9.2,10.4-9.2
			c8.5,0,10.2,1.1,10.2,9.2v4H232.4z"/>
	</g>
</g>
</svg>
